# xmcd CD database file
#
# Track frame offsets:
#	150
#	17761
#	34471
#	48555
#	61139
#	75022
#	91502
#	106223
#	119574
#	132687
#	147073
#	161763
#	175241
#	189084
#	201367
#	213112
#	231632
#	248278
#	264473
#
# Disc length: 3727 seconds
#
# Revision: 1
# Processed by: cddbd v1.4PL0 Copyright (c) Steve Scherf et al.
# Submitted via: CDex 1.51
#
DISCID=fd0e8d13
DTITLE=Danny Wright - Danny Wright
DYEAR=1999
DGENRE=New Age
TTITLE0=Fantasies
TTITLE1=Daydream
TTITLE2=Madonna Lullaby
TTITLE3=Samantha's Theme
TTITLE4=Little Bear
TTITLE5=October
TTITLE6=Moods Of Indigo
TTITLE7=Fire And Snow
TTITLE8=Song For Ann
TTITLE9=Wings Of Hope
TTITLE10=In Memory
TTITLE11=Song For Lea
TTITLE12=Everlasting Love
TTITLE13=Loving You
TTITLE14=In Flight
TTITLE15=Interlude
TTITLE16=Soaring
TTITLE17=Peace
TTITLE18=To MH And Judy With Love
EXTD=YEAR: 1999
EXTT0=
EXTT1=
EXTT2=
EXTT3=
EXTT4=
EXTT5=
EXTT6=
EXTT7=
EXTT8=
EXTT9=
EXTT10=
EXTT11=
EXTT12=
EXTT13=
EXTT14=
EXTT15=
EXTT16=
EXTT17=
EXTT18=
PLAYORDER=
